<svg version="1.1" id="Layer_1" xmlns="http://www.w3.org/2000/svg" xmlns:xlink="http://www.w3.org/1999/xlink" x="0px" y="0px"
	 width="100%" viewBox="0 0 352 352" enable-background="new 0 0 352 352" xml:space="preserve">
<path fill="#000000" opacity="1.000000" stroke="none" 
	d="
M205.145416,158.381546 
	C197.636459,158.467850 197.551620,158.520966 199.789276,165.448776 
	C202.805649,174.787445 206.292786,183.978333 207.904785,193.730667 
	C208.452682,197.045441 208.077118,199.508301 204.705368,201.177216 
	C200.329620,203.343094 200.460266,207.826187 200.606812,211.676224 
	C200.795303,216.628021 201.343018,221.610733 202.694626,226.475723 
	C203.828018,230.555176 205.361282,233.957962 209.922531,235.125702 
	C212.329819,235.741989 213.052841,237.826004 213.582520,240.042358 
	C215.604797,248.504074 214.926620,256.980164 213.065887,265.269409 
	C209.592773,280.741638 204.222946,295.613525 197.813324,310.123688 
	C196.217041,313.737366 193.881104,315.618378 189.933502,315.844971 
	C173.277817,316.801056 157.224167,315.244690 145.791107,301.282959 
	C134.242279,287.179871 134.720245,271.254242 140.895370,255.015335 
	C141.899933,252.373627 143.242065,249.861877 144.381760,247.269638 
	C146.939438,241.452240 146.927551,241.447021 145.754166,235.065933 
	C156.526169,235.282867 160.685623,228.635345 161.914444,219.029449 
	C162.999008,210.551285 165.170013,201.803009 153.751129,198.020157 
	C155.810287,193.321228 154.514099,189.185318 153.313553,185.016998 
	C147.015717,163.150772 156.563065,147.479492 178.791077,143.815857 
	C183.770889,142.995071 183.473694,139.698441 183.540955,136.544403 
	C183.818039,123.552444 183.840622,110.555237 184.001007,97.560501 
	C184.058075,92.936081 184.792709,88.362480 183.750580,83.685204 
	C182.883728,79.794594 180.793839,79.122993 178.240143,81.294434 
	C175.424072,83.688972 173.038788,83.280380 170.668839,81.375008 
	C168.186722,79.379448 169.445786,76.997414 169.877121,74.245819 
	C171.036972,66.846931 175.279160,66.414574 181.048691,67.815361 
	C183.208939,68.339851 184.275528,67.095078 185.392563,65.378609 
	C186.702194,63.366253 185.966904,61.847305 184.814194,60.407539 
	C183.397873,58.638531 180.649475,57.131973 182.008087,54.606430 
	C183.685791,51.487705 186.058212,48.673164 188.494537,46.067627 
	C189.418228,45.079784 191.976059,45.100876 192.704208,46.101669 
	C195.092560,49.384327 199.277451,51.467747 199.373093,56.379101 
	C199.455200,60.594952 198.782303,64.779274 200.646378,69.054260 
	C201.771362,71.634247 197.800140,75.328354 201.958344,78.090370 
	C196.374313,80.768089 194.228760,84.964729 194.345200,90.575096 
	C194.649261,105.228874 194.856567,119.884644 195.126846,134.539169 
	C195.150848,135.839722 195.352997,137.136993 195.488083,138.606384 
	C203.579971,139.363342 210.901245,141.889923 217.673859,145.980927 
	C220.252396,147.538498 222.714645,149.286789 224.428833,151.822128 
	C225.633331,153.603638 227.101883,155.549698 225.779541,157.781281 
	C224.496353,159.946777 222.238052,159.934967 219.988464,159.610123 
	C215.218201,158.921295 210.467896,157.967255 205.145416,158.381546 
M169.881409,231.874741 
	C169.500839,233.936554 169.120285,235.998367 168.739731,238.060196 
	C172.129730,232.009415 170.244873,225.462433 171.729675,219.235672 
	C171.140427,219.203888 170.551178,219.172104 169.961929,219.140305 
	C169.961929,223.098068 169.961929,227.055817 169.881409,231.874741 
M179.210999,73.414795 
	C178.183273,76.360741 180.427017,75.663185 181.822021,75.635330 
	C182.935349,75.613113 183.770218,74.732635 183.354568,73.658600 
	C182.587845,71.677277 181.089874,72.350601 179.210999,73.414795 
z"/>
</svg>